<mxfile>
    <diagram id="ZLniHWFYBCPoSBCvB4B7" name="Page-1">
        <mxGraphModel dx="1670" dy="478" grid="1" gridSize="10" guides="1" tooltips="1" connect="1" arrows="1" fold="1" page="1" pageScale="1" pageWidth="850" pageHeight="1100" math="0" shadow="0">
            <root>
                <mxCell id="0"/>
                <mxCell id="1" parent="0"/>
                <mxCell id="8" style="edgeStyle=none;rounded=0;orthogonalLoop=1;jettySize=auto;html=1;entryX=0;entryY=0.5;entryDx=0;entryDy=0;fontSize=23;" parent="1" source="4" target="6" edge="1">
                    <mxGeometry relative="1" as="geometry"/>
                </mxCell>
                <mxCell id="10" style="edgeStyle=none;rounded=0;orthogonalLoop=1;jettySize=auto;html=1;fontSize=23;" parent="1" source="4" target="9" edge="1">
                    <mxGeometry relative="1" as="geometry">
                        <Array as="points"/>
                    </mxGeometry>
                </mxCell>
                <mxCell id="4" value="&lt;h1&gt;&lt;span style=&quot;font-weight: 400 ; text-align: center&quot;&gt;&lt;font style=&quot;font-size: 22px&quot;&gt;หลักการทำงาน&lt;/font&gt;&lt;/span&gt;&lt;/h1&gt;&lt;p&gt;1.ระบบเชื่อมต่อระหว่างServer กับ Client&lt;br&gt;&lt;/p&gt;&lt;p&gt;2.การอัปเดตจำนวนclient ที่เชื่อมต่อ โดยส่งจำนวนทั้งหมด ไปที่client&amp;nbsp;&lt;br&gt;&lt;/p&gt;&lt;p&gt;3.การโต้ตอบระหว่างclient โดยมีServer เป็นสื่อกลาง&amp;nbsp;&lt;br&gt;&lt;/p&gt;&lt;p&gt;4.สร้างInterface ของclient&lt;br&gt;&lt;/p&gt;" style="text;html=1;strokeColor=#BD7000;fillColor=#f0a30a;spacing=5;spacingTop=-20;whiteSpace=wrap;overflow=hidden;rounded=0;fontColor=#000000;" parent="1" vertex="1">
                    <mxGeometry x="20" y="20" width="250" height="200" as="geometry"/>
                </mxCell>
                <mxCell id="6" value="&lt;font style=&quot;font-size: 33px&quot;&gt;Server&lt;/font&gt;" style="rounded=0;whiteSpace=wrap;html=1;fontSize=23;labelBackgroundColor=none;fillColor=#e3c800;strokeColor=#B09500;fontColor=#000000;" parent="1" vertex="1">
                    <mxGeometry x="400" y="72.5" width="150" height="95" as="geometry"/>
                </mxCell>
                <mxCell id="69" style="edgeStyle=orthogonalEdgeStyle;rounded=0;orthogonalLoop=1;jettySize=auto;html=1;" edge="1" parent="1" source="9">
                    <mxGeometry relative="1" as="geometry">
                        <mxPoint x="-340" y="240" as="targetPoint"/>
                        <Array as="points">
                            <mxPoint x="-340" y="190"/>
                            <mxPoint x="-340" y="190"/>
                        </Array>
                    </mxGeometry>
                </mxCell>
                <mxCell id="9" value="Client" style="rounded=0;whiteSpace=wrap;html=1;labelBackgroundColor=none;fontSize=23;fillColor=#e3c800;strokeColor=#B09500;fontColor=#000000;" parent="1" vertex="1">
                    <mxGeometry x="-420" y="74" width="160" height="80" as="geometry"/>
                </mxCell>
                <mxCell id="71" value="&lt;div&gt;&lt;span&gt;flowProcess&lt;/span&gt;&lt;/div&gt;&lt;div&gt;&lt;span&gt;lb --&amp;gt; (thread,&lt;/span&gt;&lt;/div&gt;&lt;div&gt;&lt;span&gt;ttkbooststrap,tkiner,ast)&lt;/span&gt;&lt;/div&gt;&amp;nbsp;" style="rounded=0;whiteSpace=wrap;html=1;fillColor=#e3c800;strokeColor=#B09500;fontColor=#000000;fontSize=26;align=center;" vertex="1" parent="1">
                    <mxGeometry x="-510" y="240" width="340" height="170" as="geometry"/>
                </mxCell>
                <mxCell id="77" value="" style="edgeStyle=orthogonalEdgeStyle;rounded=0;orthogonalLoop=1;jettySize=auto;html=1;fontSize=26;" edge="1" parent="1" source="74" target="71">
                    <mxGeometry relative="1" as="geometry"/>
                </mxCell>
                <mxCell id="74" value="&lt;font color=&quot;#000000&quot;&gt;User-Interface&lt;/font&gt;" style="rounded=0;whiteSpace=wrap;html=1;fontSize=26;fillColor=#fad7ac;strokeColor=#b46504;" vertex="1" parent="1">
                    <mxGeometry x="-740" y="440" width="200" height="80" as="geometry"/>
                </mxCell>
                <mxCell id="76" value="" style="edgeStyle=orthogonalEdgeStyle;rounded=0;orthogonalLoop=1;jettySize=auto;html=1;fontSize=26;" edge="1" parent="1" source="75" target="71">
                    <mxGeometry relative="1" as="geometry"/>
                </mxCell>
                <mxCell id="75" value="&lt;font color=&quot;#000000&quot;&gt;Client_manage&lt;/font&gt;" style="rounded=0;whiteSpace=wrap;html=1;fontSize=26;fillColor=#bac8d3;strokeColor=#23445d;" vertex="1" parent="1">
                    <mxGeometry x="-270" y="550" width="190" height="80" as="geometry"/>
                </mxCell>
                <mxCell id="79" value="" style="edgeStyle=orthogonalEdgeStyle;rounded=0;orthogonalLoop=1;jettySize=auto;html=1;fontSize=26;" edge="1" parent="1" source="78" target="75">
                    <mxGeometry relative="1" as="geometry"/>
                </mxCell>
                <mxCell id="78" value="&lt;font color=&quot;#333333&quot;&gt;ส่ง&lt;br&gt;&lt;div style=&quot;text-align: left&quot;&gt;&lt;span&gt;s_msg = {'name','text'} ในรูปของ byte_str&amp;nbsp;&amp;nbsp;&lt;/span&gt;&lt;/div&gt;&lt;br&gt;&lt;br&gt;รับ&lt;br&gt;&lt;br&gt;&lt;/font&gt;" style="rounded=0;whiteSpace=wrap;html=1;fontSize=26;fillColor=#cdeb8b;strokeColor=#36393d;" vertex="1" parent="1">
                    <mxGeometry x="-480" y="670" width="470" height="260" as="geometry"/>
                </mxCell>
            </root>
        </mxGraphModel>
    </diagram>
</mxfile>